<svg width="388" height="197" viewBox="0 0 388 197" fill="none" xmlns="http://www.w3.org/2000/svg">
<path d="M159.72 93.2064C147.185 98.1211 133.285 89.905 131.661 76.4341L128.208 47.7702C128.206 47.7519 128.205 47.7332 128.203 47.7149C127.163 38.883 131.882 30.4312 139.833 26.6412C139.922 26.5989 140.011 26.5582 140.101 26.5177L140.353 26.4038C140.438 26.3654 140.523 26.3272 140.609 26.2905L167.159 14.9496L167.161 14.9491C179.83 9.5388 194.149 17.8048 195.799 31.4832L195.799 31.4851L199.251 60.1483C200.348 69.2499 195.315 78.0117 186.852 81.6275L160.302 92.9687L160.098 93.0536L159.906 93.1312C159.845 93.1565 159.782 93.182 159.72 93.2064ZM145.561 74.7591C146.084 79.1034 150.569 81.7557 154.609 80.172L154.802 80.0942L181.352 68.753C184.081 67.5867 185.706 64.7599 185.352 61.8224L181.9 33.1601C181.368 28.7473 176.747 26.0786 172.659 27.8241L146.109 39.1651L145.858 39.279C143.368 40.4657 141.861 43.0706 142.081 45.8272L142.107 46.0952L145.561 74.7591Z" fill="#2E6740"/>
<path d="M90.0186 77.0569C89.0328 76.8369 88.0081 76.72 86.9561 76.72L66.25 76.72C59.1814 76.72 52.3495 78.127 45.8779 80.9407V80.9427C39.7296 83.5777 34.2414 87.2478 29.5215 91.9427C24.6982 96.6714 20.9415 102.24 18.2217 108.495C15.378 114.967 14.0001 121.843 14 128.969C14 136.013 15.337 142.827 18.0518 149.286C18.0611 149.309 18.0706 149.332 18.0801 149.354C20.7361 155.582 24.4537 161.135 29.2188 165.9C33.9482 170.629 39.447 174.354 45.6055 177.071C45.6806 177.104 45.7564 177.136 45.832 177.168C52.3135 179.892 59.1633 181.22 66.25 181.22H86.9561C88.0081 181.22 89.0329 181.103 90.0186 180.883C91.0042 181.103 92.0291 181.22 93.0811 181.22L112.461 181.22C116.376 181.22 119.915 179.611 122.456 177.021C125.058 179.675 128.649 181.22 132.453 181.22H154.077C158.967 181.22 163.489 178.669 166.024 174.516C168.579 176.063 171.281 177.391 174.115 178.509C174.168 178.53 174.222 178.551 174.275 178.572C180.906 181.093 187.995 182.24 195.367 182.24C202.739 182.24 209.829 181.093 216.46 178.572C216.509 178.553 216.558 178.534 216.607 178.514L216.62 178.509C223.09 175.958 228.864 172.291 233.726 167.429C236.882 164.272 239.532 160.743 241.688 156.89L248.168 172.568C250.333 177.804 255.44 181.22 261.106 181.22H269.368C275.034 181.22 280.142 177.804 282.307 172.568L289.556 155.03V167.22C289.556 174.952 295.824 181.22 303.556 181.22H359.452C367.184 181.22 373.452 174.952 373.452 167.22V147.84C373.452 146.233 373.179 144.688 372.681 143.25C373.18 141.812 373.452 140.268 373.452 138.66V119.28C373.452 117.672 373.179 116.128 372.681 114.69C373.179 113.252 373.452 111.707 373.452 110.1V90.72C373.452 82.9883 367.184 76.7204 359.452 76.72L303.556 76.72C303.123 76.72 302.694 76.7411 302.271 76.7796C301.847 76.7406 301.419 76.72 300.988 76.72L280.486 76.72C274.81 76.72 269.715 80.1443 267.555 85.3548L267.355 85.8655L265.244 91.5735L263.109 85.8362C261.069 80.3553 255.836 76.7202 249.988 76.72L229.486 76.72C225.751 76.72 222.213 78.2106 219.616 80.7923C218.635 80.3434 217.636 79.923 216.619 79.5325L216.62 79.5315C209.944 76.8987 202.798 75.6995 195.367 75.6995C187.937 75.6996 180.791 76.8998 174.115 79.5325C167.605 82.032 161.808 85.7124 156.908 90.6116C156.514 91.0058 156.129 91.4067 155.75 91.8128C154.888 90.8152 153.976 89.8539 153.009 88.9349C149.015 85.0102 144.349 82.0123 139.141 79.9485L139.14 79.9495C133.859 77.7632 128.286 76.7201 122.559 76.72L93.0811 76.72C92.0291 76.72 91.0043 76.837 90.0186 77.0569Z" fill="#251917"/>
<path d="M8.5779e-06 128.969C8.77329e-05 120.001 1.74248 111.198 5.40431 102.864C8.78912 95.0949 13.5175 88.0465 19.6484 82.0169L20.2139 81.4603C26.0505 75.7918 32.7803 71.3477 40.208 68.1429C40.2375 68.1298 40.2663 68.1147 40.2959 68.1019C48.5475 64.5143 57.2812 62.72 66.25 62.72V76.72C59.1814 76.72 52.3495 78.127 45.8779 80.9407V80.9427C39.7296 83.5777 34.2414 87.2478 29.5215 91.9427L29.0723 92.388C24.4642 97.0197 20.8566 102.435 18.2217 108.495C15.378 114.967 14.0001 121.843 14 128.969C14 136.013 15.337 142.827 18.0518 149.286C18.0611 149.309 18.0706 149.332 18.0801 149.354C20.7361 155.582 24.4537 161.135 29.2188 165.9C33.9482 170.629 39.447 174.354 45.6055 177.071C45.6806 177.104 45.7564 177.136 45.832 177.168C52.3135 179.892 59.1633 181.22 66.25 181.22H86.9561C88.0081 181.22 89.0329 181.103 90.0186 180.883C91.0042 181.103 92.0291 181.22 93.0811 181.22H112.461C116.376 181.22 119.915 179.611 122.456 177.021C125.058 179.675 128.649 181.22 132.453 181.22H154.077C158.967 181.22 163.489 178.669 166.024 174.516C168.579 176.063 171.281 177.391 174.115 178.509C174.168 178.53 174.222 178.551 174.275 178.572C180.906 181.093 187.995 182.24 195.367 182.24C202.739 182.24 209.829 181.093 216.46 178.572C216.509 178.553 216.559 178.533 216.607 178.514L216.62 178.509C223.09 175.958 228.864 172.291 233.726 167.429C236.882 164.272 239.532 160.743 241.688 156.89L248.168 172.568C250.333 177.804 255.44 181.22 261.106 181.22H269.368C275.034 181.22 280.142 177.804 282.307 172.568L289.556 155.03V167.22C289.556 174.831 295.63 181.023 303.194 181.215L303.556 181.22H359.452C367.063 181.22 373.255 175.146 373.447 167.581L373.452 167.22V147.84C373.452 146.233 373.179 144.688 372.681 143.25C373.18 141.812 373.452 140.268 373.452 138.66V119.28C373.452 117.672 373.179 116.128 372.681 114.69C373.179 113.252 373.452 111.707 373.452 110.1V90.72C373.452 82.9883 367.184 76.7204 359.452 76.72H303.556V62.72H359.453C374.915 62.721 387.452 75.2557 387.452 90.72V110.101C387.452 111.66 387.321 113.193 387.073 114.69C387.321 116.186 387.452 117.72 387.452 119.279V138.661C387.452 140.22 387.321 141.754 387.073 143.25C387.321 144.747 387.452 146.281 387.452 147.84V167.22C387.452 182.683 374.916 195.219 359.453 195.22H303.556C297.119 195.22 291.19 193.046 286.461 189.395C281.663 193.093 275.689 195.22 269.368 195.22H261.106C251.547 195.22 242.784 190.36 237.677 182.554C232.802 186.313 227.447 189.288 221.757 191.532L221.747 191.535C221.707 191.551 221.58 191.602 221.438 191.657L221.437 191.658C213.002 194.865 204.195 196.24 195.367 196.24C186.816 196.239 178.284 194.949 170.091 191.952L169.299 191.658C169.147 191.6 169.002 191.542 168.978 191.533V191.532C168.777 191.452 168.578 191.369 168.378 191.288C164.123 193.817 159.202 195.22 154.077 195.22H132.453C128.983 195.22 125.604 194.576 122.461 193.374C119.355 194.564 115.982 195.22 112.461 195.22H93.0811C92.0478 195.22 91.0259 195.162 90.0186 195.051C89.0112 195.162 87.9893 195.22 86.9561 195.22H66.25C57.3804 195.22 48.679 193.551 40.4082 190.075C40.2491 190.008 40.0973 189.942 39.9551 189.879H39.9541C32.502 186.591 25.7459 182.082 19.8838 176.357L19.3193 175.799C13.4463 169.926 8.83842 163.118 5.51954 155.577L5.20216 154.846C5.17928 154.792 5.16067 154.748 5.15235 154.728C5.15016 154.723 5.14741 154.716 5.14552 154.711V154.71C1.79609 146.741 0.107131 138.362 0.00489139 129.798L8.5779e-06 128.969ZM195.367 61.6995C203.018 61.6995 210.651 62.7596 218.035 65.1702C221.585 63.5787 225.478 62.72 229.486 62.72H249.988V76.72H229.486C225.751 76.72 222.213 78.2106 219.616 80.7923C218.635 80.3434 217.636 79.923 216.619 79.5325L216.62 79.5315C209.944 76.8987 202.798 75.6995 195.367 75.6995C187.937 75.6996 180.791 76.8998 174.115 79.5325C167.605 82.032 161.808 85.7124 156.908 90.6116C156.514 91.0058 156.129 91.4067 155.75 91.8128C154.888 90.8152 153.976 89.8539 153.009 88.9349C149.015 85.0102 144.349 82.0123 139.141 79.9485L139.14 79.9495C133.859 77.7632 128.286 76.72 122.559 76.72V62.72C129.933 62.7201 137.257 64.0562 144.267 66.9222C144.277 66.9262 144.288 66.9289 144.298 66.9329C148.454 68.5797 152.38 70.6925 156.02 73.2659C160.098 70.4996 164.479 68.2362 169.097 66.4632V66.4642C177.585 63.1356 186.463 61.6996 195.367 61.6995ZM280.486 76.72C274.81 76.72 269.715 80.1443 267.555 85.3548L267.355 85.8655L265.244 91.5735L263.109 85.8362C261.133 80.5268 256.161 76.9495 250.535 76.7308L249.988 76.72V62.72C255.53 62.7202 260.795 64.3544 265.236 67.2386C269.677 64.3538 274.943 62.72 280.486 62.72V76.72ZM93.0811 76.72C92.0291 76.72 91.0043 76.837 90.0186 77.0569C89.0328 76.8369 88.0081 76.72 86.9561 76.72V62.72C87.9889 62.72 89.0105 62.7786 90.0176 62.889C91.0253 62.7784 92.0475 62.72 93.0811 62.72V76.72ZM303.556 76.72C303.123 76.72 302.694 76.7411 302.271 76.7796L301.632 76.7356C301.525 76.7306 301.418 76.7265 301.311 76.7239L300.988 76.72V62.72C301.424 62.72 301.856 62.7304 302.282 62.7503C302.698 62.7312 303.123 62.72 303.556 62.72V76.72ZM300.988 62.72V76.72H280.486V62.72H300.988ZM122.559 62.72V76.72H93.0811V62.72H122.559ZM86.9561 62.72V76.72H66.25V62.72H86.9561Z" fill="#2E6740"/>
<path d="M359.451 138.66H322.935V147.84H359.451V167.22H303.555V90.7195H359.451V110.1H322.935V119.28H359.451V138.66Z" fill="#EEEBE3"/>
<path d="M249.988 90.7195L265.288 131.826L280.486 90.7195H300.988L269.368 167.22H261.106L229.486 90.7195H249.988Z" fill="#EEEBE3"/>
<path d="M159.568 128.969C159.568 123.053 160.486 117.681 162.322 112.853C164.226 108.025 166.878 103.911 170.278 100.511C173.746 97.0435 177.894 94.3915 182.722 92.5555C187.55 90.6515 192.922 89.6995 198.838 89.6995C204.754 89.6995 210.126 90.6515 214.954 92.5555C219.782 94.3915 223.896 97.0435 227.296 100.511C230.764 103.911 233.416 108.025 235.252 112.853C237.156 117.681 238.108 123.053 238.108 128.969C238.108 134.885 237.156 140.257 235.252 145.085C233.416 149.913 230.764 154.061 227.296 157.529C223.896 160.929 219.782 163.581 214.954 165.485C210.126 167.321 204.754 168.239 198.838 168.239C192.922 168.239 187.55 167.321 182.722 165.485C177.894 163.581 173.746 160.929 170.278 157.529C166.878 154.061 164.226 149.913 162.322 145.085C160.486 140.257 159.568 134.885 159.568 128.969ZM179.254 128.969C179.254 131.893 179.696 134.579 180.58 137.027C181.532 139.407 182.858 141.481 184.558 143.249C186.326 144.949 188.4 146.275 190.78 147.227C193.228 148.111 195.914 148.553 198.838 148.553C201.83 148.553 204.516 148.111 206.896 147.227C209.276 146.275 211.316 144.949 213.016 143.249C214.784 141.481 216.11 139.407 216.994 137.027C217.946 134.579 218.422 131.893 218.422 128.969C218.422 125.977 217.946 123.291 216.994 120.911C216.11 118.531 214.784 116.491 213.016 114.791C211.316 113.023 209.276 111.697 206.896 110.813C204.516 109.861 201.83 109.385 198.838 109.385C195.914 109.385 193.228 109.861 190.78 110.813C188.4 111.697 186.326 113.023 184.558 114.791C182.858 116.491 181.532 118.531 180.58 120.911C179.696 123.291 179.254 125.977 179.254 128.969Z" fill="#EEEBE3"/>
<path d="M115.931 167.22H96.5508V90.7195H126.029C130.109 90.7195 133.917 91.4675 137.453 92.9635C141.057 94.3915 144.185 96.4315 146.837 99.0835C149.557 101.668 151.665 104.761 153.161 108.366C154.725 111.969 155.507 115.914 155.507 120.198C155.507 125.298 154.419 129.888 152.243 133.968C150.067 138.048 147.177 141.414 143.573 144.066L157.547 167.22H135.923L125.213 149.676H115.931V167.22ZM115.931 130.296H126.029C127.389 130.296 128.681 130.024 129.905 129.48C131.129 128.936 132.183 128.222 133.067 127.338C134.019 126.386 134.767 125.298 135.311 124.074C135.855 122.85 136.127 121.558 136.127 120.198C136.127 118.77 135.855 117.444 135.311 116.22C134.767 114.996 134.019 113.942 133.067 113.058C132.183 112.106 131.129 111.392 129.905 110.916C128.681 110.372 127.389 110.1 126.029 110.1H115.931V130.296Z" fill="#EEEBE3"/>
<path d="M90.426 167.22H69.72C64.416 167.22 59.418 166.234 54.726 164.262C50.102 162.222 46.056 159.468 42.588 156C39.12 152.532 36.4 148.486 34.428 143.862C32.456 139.17 31.47 134.206 31.47 128.969C31.47 123.666 32.49 118.702 34.53 114.078C36.57 109.386 39.324 105.34 42.792 101.94C46.26 98.4715 50.306 95.7515 54.93 93.7795C59.622 91.7395 64.552 90.7195 69.72 90.7195H90.426V110.1H69.72C67.136 110.1 64.688 110.61 62.376 111.63C60.064 112.582 58.058 113.908 56.358 115.608C54.658 117.308 53.298 119.314 52.278 121.626C51.326 123.938 50.85 126.386 50.85 128.969C50.85 131.554 51.326 134.002 52.278 136.314C53.298 138.625 54.658 140.632 56.358 142.332C58.058 144.032 60.064 145.392 62.376 146.412C64.688 147.364 67.136 147.84 69.72 147.84H71.046V124.074H90.426V167.22Z" fill="#EEEBE3"/>
<path d="M153.83 80.9026C149.503 82.5991 144.699 79.7578 144.139 75.1047L140.439 44.405L140.44 44.4045C140.072 41.3473 141.703 38.4166 144.456 37.1046L144.726 36.9829L173.161 24.8364C177.539 22.9667 182.488 25.8235 183.058 30.5499L183.058 30.5507L186.756 61.2494C187.135 64.3957 185.395 67.4229 182.471 68.672L154.035 80.8186L153.83 80.9026ZM149.992 74.3993C150.091 75.2246 150.955 75.7235 151.72 75.397L180.155 63.2505C180.665 63.0328 180.969 62.5044 180.903 61.9543L177.205 31.2556C177.108 30.4563 176.294 29.9631 175.549 30.2297L175.477 30.258L147.041 42.4045C146.564 42.6085 146.265 43.085 146.285 43.597L146.293 43.7001L149.992 74.3993ZM159.496 64.4214C158.394 64.8919 157.327 63.6889 157.926 62.6513L169.269 43.0039C169.869 41.9665 171.443 42.2887 171.587 43.4779L173.283 57.5556C173.349 58.1057 173.045 58.6341 172.535 58.8518L159.496 64.4214Z" fill="#251917"/>
<path fill-rule="evenodd" clip-rule="evenodd" d="M177.204 31.2554L180.902 61.9544C180.969 62.5045 180.664 63.0328 180.155 63.2505L151.719 75.3968C150.955 75.7233 150.091 75.2244 149.992 74.3992L146.293 43.6997C146.226 43.1495 146.532 42.6217 147.041 42.4041L175.477 30.2578C176.241 29.9315 177.105 30.4303 177.204 31.2554ZM169.269 43.0037C169.868 41.9663 171.443 42.2885 171.587 43.4777L173.283 57.5556C173.349 58.1057 173.045 58.6341 172.535 58.8518L159.496 64.4212C158.394 64.8918 157.327 63.6887 157.926 62.6511L169.269 43.0037Z" fill="#EEEBE3"/>
</svg>
