<svg width="60" height="60" viewBox="0 0 60 60" fill="none" xmlns="http://www.w3.org/2000/svg">
<path d="M27.7708 51.8213C20.8016 54.5538 13.0731 49.9857 12.1706 42.4962L10.2505 26.5595C10.2493 26.5493 10.2491 26.5389 10.2479 26.5287C9.66948 21.6183 12.2934 16.9192 16.7137 14.8121C16.763 14.7885 16.813 14.7659 16.8628 14.7434L17.0027 14.6801C17.05 14.6587 17.0976 14.6375 17.1454 14.6171L31.9065 8.31172L31.9075 8.31144C38.9517 5.30342 46.9127 9.8992 47.8298 17.5042L47.8301 17.5052L49.7495 33.4415C50.359 38.5018 47.561 43.3733 42.8556 45.3836L28.094 51.6891L27.9807 51.7363L27.8743 51.7795C27.8399 51.7935 27.8053 51.8077 27.7708 51.8213ZM19.8984 41.5649C20.1895 43.9802 22.6831 45.4549 24.9291 44.5744L25.0361 44.5311L39.7977 38.2255C41.3152 37.5771 42.2182 36.0055 42.0215 34.3723L40.1022 18.4365C39.8063 15.983 37.2373 14.4993 34.9644 15.4698L20.2034 21.7751L20.0635 21.8385C18.6794 22.4983 17.8412 23.9466 17.9637 25.4792L17.9784 25.6282L19.8984 41.5649Z" fill="#2E6740"/>
<path d="M24.4958 44.9805C22.0902 45.9237 19.4195 44.344 19.1077 41.757L17.0511 24.6884L17.0512 24.6882C16.8466 22.9884 17.7538 21.359 19.2842 20.6295L19.4341 20.5619L35.2437 13.8086C37.678 12.7691 40.4292 14.3574 40.7461 16.9852L40.7462 16.9857L42.8022 34.0536C43.013 35.8029 42.0454 37.486 40.42 38.1805L24.6101 44.9338L24.4958 44.9805ZM22.3619 41.3648C22.4172 41.8236 22.8977 42.101 23.3227 41.9195L39.1323 35.1662C39.4155 35.0452 39.5848 34.7514 39.548 34.4456L37.4919 17.3776C37.4383 16.9332 36.9858 16.659 36.5712 16.8072L36.5312 16.8229L20.7216 23.5762C20.456 23.6896 20.2902 23.9546 20.3009 24.2392L20.3053 24.2965L22.3619 41.3648ZM27.6463 35.8172C27.0337 36.0788 26.4404 35.41 26.7733 34.8331L33.0801 23.9095C33.4132 23.3327 34.2887 23.5118 34.3685 24.173L35.3114 32C35.3482 32.3058 35.179 32.5996 34.8957 32.7206L27.6463 35.8172Z" fill="#251917"/>
<path fill-rule="evenodd" clip-rule="evenodd" d="M37.4917 17.3775L39.5478 34.4456C39.5846 34.7515 39.4154 35.0452 39.1321 35.1663L23.3224 41.9194C22.8975 42.1009 22.4171 41.8236 22.3618 41.3647L20.3052 24.2963C20.2684 23.9905 20.4382 23.697 20.7215 23.576L36.5311 16.8229C36.956 16.6414 37.4364 16.9188 37.4917 17.3775ZM33.0798 23.9094C33.4129 23.3326 34.2886 23.5117 34.3685 24.1729L35.3113 32C35.3481 32.3058 35.1789 32.5996 34.8956 32.7206L27.6462 35.8171C27.0336 36.0788 26.4402 35.4099 26.7733 34.833L33.0798 23.9094Z" fill="#EEEBE3"/>
</svg>
