<svg width="108" height="125" viewBox="0 0 108 125" fill="none" xmlns="http://www.w3.org/2000/svg">
<path d="M82 14H62.8556C56.2801 14.0001 49.9411 15.2911 43.9263 17.8738C38.1201 20.3291 32.9582 23.7504 28.5219 28.1311L28.1038 28.543C23.8078 32.8243 20.4287 37.8437 17.9475 43.5024C15.2949 49.4835 14 55.8534 14 62.5C14 69.068 15.2553 75.3923 17.7944 81.3824L17.8044 81.4073L17.815 81.4316C20.3106 87.234 23.7911 92.3828 28.2438 96.7979C32.67 101.187 37.8172 104.647 43.6044 107.179L43.6869 107.215L43.77 107.25C49.8112 109.767 56.2048 111 62.8556 111H82C88.6274 111 94 105.627 94 99V26C94 19.3726 88.6274 14 82 14Z" fill="#251917"/>
<path d="M5.46392e-06 62.5C5.46392e-06 53.9935 1.66638 45.6796 5.14942 37.8262C8.29495 30.6697 12.6369 24.1918 18.2207 18.627L18.25 18.5986L18.2783 18.5703L18.6846 18.169C24.4005 12.5247 31.0377 8.13525 38.4023 5.01075V5.00978C46.1827 1.66898 54.4031 7.19826e-05 62.8555 1.23502e-05V14C56.28 14.0001 49.9406 15.2914 43.9258 17.874C38.1198 20.3293 32.9577 23.7503 28.5215 28.1309L28.1035 28.543C23.8077 32.8242 20.4285 37.8435 17.9473 43.502C15.2946 49.4831 14 55.8534 14 62.5C14 69.068 15.2549 75.3927 17.794 81.3828L17.8154 81.4317C20.3111 87.2339 23.7915 92.3828 28.2441 96.7979C32.6704 101.187 37.8174 104.647 43.6045 107.179L43.6865 107.215L43.7695 107.25C49.8107 109.768 56.2047 111 62.8555 111H82C88.6274 111 94 105.627 94 99V26C94 19.4761 88.7939 14.1681 82.3096 14.0039L82 14V1.23502e-05C96.3594 2.05972e-05 108 11.6406 108 26V99C108 113.359 96.3594 125 82 125H62.8555C54.4386 125 46.2067 123.432 38.3848 120.173L38.3672 120.165L38.3496 120.158L38.2666 120.123L38.168 120.081L38.0693 120.038L37.9932 120.004V120.005C30.9074 116.905 24.4926 112.659 18.9229 107.265L18.3867 106.739C12.6509 101.052 8.17417 94.4228 4.98731 87.0391L4.97657 87.0147L4.89063 86.8184L4.84083 86.6904C1.59297 78.9703 5.46392e-06 70.8368 5.46392e-06 62.5ZM82 1.23502e-05V14H62.8555V1.23502e-05H82Z" fill="#2E6740"/>
<path d="M83 101H62.6298C57.4118 101 52.4948 100.008 47.8789 98.0227C43.3299 95.9693 39.3495 93.1974 35.9377 89.7067C32.526 86.216 29.8501 82.1436 27.91 77.4893C25.97 72.7667 25 67.7702 25 62.5C25 57.1613 26.0035 52.1649 28.0104 47.5107C30.0173 42.788 32.7266 38.7156 36.1384 35.2933C39.5502 31.8027 43.5306 29.0649 48.0796 27.08C52.6955 25.0267 57.5456 24 62.6298 24H83V43.5067H62.6298C60.0877 43.5067 57.6794 44.02 55.4048 45.0467C53.1303 46.0049 51.1569 47.3396 49.4844 49.0507C47.812 50.7618 46.4741 52.7809 45.4706 55.108C44.534 57.4351 44.0657 59.8991 44.0657 62.5C44.0657 65.1009 44.534 67.5649 45.4706 69.892C46.4741 72.2191 47.812 74.2382 49.4844 75.9493C51.1569 77.6605 53.1303 79.0293 55.4048 80.056C57.6794 81.0142 60.0877 81.4933 62.6298 81.4933H63.9343V57.572H83V101Z" fill="#EEEBE3"/>
</svg>
